# xmcd
#
# Track frame offsets: 
#        150
#        14590
#        32456
#        54297
#        77429
#        89408
#        105066
#        154624
#        175078
#        201170
#
# Disc length: 3000 seconds
#
# Revision: 1
# Processed by: cddbd v1.5.2PL0 Copyright (c) Steve Scherf et al.
# Submitted via: ExactAudioCopy v1.0b3
#
DISCID=640bb60a
DTITLE=Gang Olsena - Live SB 2004
DYEAR=2005
DGENRE=Blues
TTITLE0=Aldona
TTITLE1=Mój honky tonk blues
TTITLE2=Białe myszy dzikie koty
TTITLE3=Kilka chwil
TTITLE4=Krzysztof K.
TTITLE5=Kołysanka o Nowym Jorku
TTITLE6=Sweet Home Chicago
TTITLE7=Cały jestem happy
TTITLE8=Jak tu nie wypić
TTITLE9=Jedziemy autostopem
EXTD=
EXTT0=
EXTT1=
EXTT2=
EXTT3=
EXTT4=
EXTT5=
EXTT6=
EXTT7=
EXTT8=
EXTT9=
PLAYORDER=
